<svg width="125" height="22" viewBox="0 0 125 22" fill="none" xmlns="http://www.w3.org/2000/svg">
<path fill-rule="evenodd" clip-rule="evenodd" d="M1.0094 0.826172L0 1.58322V20.2169L1.0094 21.1742L2.01879 20.2169V1.58322L1.0094 0.826172ZM0.244096 20.1109V20.112L1.0094 20.8378L1.7747 20.112V1.70527L1.77452 1.70513V20.1107L1.00922 20.8365L0.244096 20.1109Z" fill="#00D295"/>
<path fill-rule="evenodd" clip-rule="evenodd" d="M19.2066 14.2914H20.8968V1.59611L19.8874 0.712891L18.878 1.59611V11.5434L6.75067 1.30627L5.00428 1.1953L5.46288 2.86888L18.878 14.1853V14.2914H19.0038L19.1224 14.3915L19.2066 14.2914ZM5.33076 1.46063L5.33007 1.46059L5.67825 2.73122L19.093 14.0473L19.1221 14.0128V14.0473H20.6527V14.046H19.1225V14.0114L19.0934 14.046L5.67856 2.72986L5.33076 1.46063ZM19.1221 12.0673L19.1225 12.0675V1.70661L19.1221 1.70688V12.0673ZM5.02854 20.9643L5.02893 20.9646L5.79423 20.295V9.93343L5.79357 9.93287V20.2949L5.02854 20.9643ZM18.2615 20.457L18.2616 20.4571L19.5863 20.5413L19.2381 19.2707L5.82334 7.95454L5.82312 7.9548L19.2375 19.2706L19.5857 20.5412L18.2615 20.457ZM5.79423 7.98823V7.95454H5.79357V7.98901L5.79423 7.98823ZM5.70976 7.71044H4.01953V20.4058L5.02893 21.289L6.03832 20.4058V10.4585L18.1657 20.6956L19.9121 20.8066L19.4535 19.133L6.03832 7.81654V7.71044H5.91254L5.79397 7.61041L5.70976 7.71044Z" fill="#00D295"/>
<path fill-rule="evenodd" clip-rule="evenodd" d="M33.4721 21.5771C39.3129 21.5771 44.0478 16.8422 44.0478 11.0014C44.0478 5.16066 39.3129 0.425781 33.4721 0.425781C27.6314 0.425781 22.8965 5.16066 22.8965 11.0014C22.8965 16.8422 27.6314 21.5771 33.4721 21.5771ZM33.4721 19.6847C28.6765 19.6847 24.7889 15.7971 24.7889 11.0014C24.7889 6.2058 28.6765 2.31818 33.4721 2.31818C38.2678 2.31818 42.1554 6.2058 42.1554 11.0014C42.1554 15.7971 38.2678 19.6847 33.4721 19.6847ZM43.8037 11.0014C43.8037 16.7074 39.1781 21.333 33.4721 21.333C29.2121 21.333 25.5542 18.7546 23.974 15.0734C25.5543 18.7544 29.2121 21.3326 33.472 21.3326C39.1779 21.3326 43.8035 16.707 43.8035 11.001C43.8035 9.69727 43.562 8.44994 43.1214 7.30129C43.5621 8.45005 43.8037 9.69753 43.8037 11.0014ZM25.2463 14.4764C24.7945 13.4082 24.5446 12.2338 24.5446 11.001C24.5446 6.07057 28.5415 2.07366 33.472 2.07366C37.0658 2.07366 40.1637 4.19732 41.5792 7.25819C40.1636 4.19754 37.0659 2.07408 33.4721 2.07408C28.5417 2.07408 24.5448 6.07099 24.5448 11.0014C24.5448 12.234 24.7946 13.4083 25.2463 14.4764Z" fill="#00D295"/>
<path fill-rule="evenodd" clip-rule="evenodd" d="M47.9378 1.23597L46.8026 1.12305L46.0469 1.98496L51.7385 17.761L52.2273 19.4824L53.4044 20.8793L54.5815 19.4824L55.0456 17.8478L60.7686 1.98496L60.0128 1.12305L58.8777 1.23597L53.4077 16.4318L47.9378 1.23597ZM52.4478 19.3653L51.971 17.6862L46.3254 2.03759L46.3256 2.03731L51.9706 17.6841L52.4474 19.3632L53.404 20.4984L54.3606 19.3632L54.8127 17.7709L60.4893 2.03665L60.4901 2.03759L54.8131 17.773L54.361 19.3653L53.4044 20.5005L52.4478 19.3653Z" fill="#00D295"/>
<path fill-rule="evenodd" clip-rule="evenodd" d="M75.448 12.2902L70.5211 0.808594L65.5942 12.2902H75.448ZM77.3602 16.7136L77.3783 16.4893L63.997 16.4895L63.7922 16.4257L63.7745 16.4895H63.7332V16.6374L62.7695 20.0951L63.4139 21.1923L64.668 20.737L65.2925 18.5435H75.7798L76.4042 20.737L77.6583 21.1923L78.3027 20.0951L77.3602 16.7136ZM63.0326 20.061L63.9599 16.7338L63.9774 16.7393V16.7338H77.1125L77.1137 16.7338L77.1137 16.7336L63.9773 16.7336V16.7391L63.9598 16.7336L63.0325 20.0609L63.0326 20.061ZM65.9647 12.0461H65.9645L70.5211 1.42759L75.0776 12.0461H75.0776L70.5212 1.42782L65.9647 12.0461ZM72.7552 10.5155L72.7553 10.5158H68.287L68.2871 10.5155H72.7552ZM68.6573 10.2714L70.5211 5.92803L72.3849 10.2714H68.6573Z" fill="#00D295"/>
<path fill-rule="evenodd" clip-rule="evenodd" d="M99.1069 7.31021C98.5095 5.89083 97.5512 4.64098 96.315 3.6919C94.6428 2.408 92.5701 1.75735 90.4641 1.85519C88.3581 1.95304 86.3547 2.79306 84.8087 4.22648C83.2627 5.65989 82.2739 7.5942 82.0174 9.68681C81.825 11.2563 82.0539 12.8388 82.6672 14.2763C82.0537 12.8387 81.8248 11.256 82.0172 9.6864C82.2737 7.59379 83.2625 5.65948 84.8085 4.22606C86.3545 2.79264 88.3579 1.95262 90.4639 1.85478C92.5699 1.75693 94.6426 2.40758 96.3148 3.69148C97.5511 4.64066 98.5096 5.89066 99.1069 7.31021ZM93.8009 19.2079C93.801 19.2079 93.801 19.2078 93.8011 19.2078L90.1303 16.1848L90.1303 16.1851L93.8009 19.2079ZM97.601 20.2984V21.3462L96.6352 21.5417L94.9737 20.1735L94.9739 20.1739L96.6353 21.5422L97.6012 21.3466V20.2985L97.601 20.2984ZM95.0045 20.2443C92.7677 21.2187 90.2582 21.3701 87.9204 20.6716C85.5827 19.9731 83.5675 18.4698 82.232 16.4279C81.9363 15.9758 81.6781 15.5038 81.4586 15.0166C81.6782 15.504 81.9364 15.9761 82.2322 16.4283C83.5677 18.4702 85.5828 19.9735 87.9206 20.672C90.1803 21.3472 92.6005 21.2283 94.7798 20.3395C94.809 20.3276 94.8381 20.3156 94.8673 20.3034C94.9132 20.2842 94.959 20.2646 95.0047 20.2447L95.0045 20.2443ZM100.407 6.77861C100.648 7.35398 100.838 7.95333 100.972 8.57016C101.474 10.8716 101.175 13.2729 100.127 15.3771L100.127 15.3773C101.175 13.2732 101.475 10.8719 100.972 8.57058C100.838 7.9536 100.648 7.3541 100.407 6.77861ZM101.602 16.6082V17.656L100.636 17.8515L94.131 12.4946L94.1309 12.4948L100.636 17.8519L101.602 17.6564V16.6083L101.602 16.6082ZM101.211 8.51854C101.711 10.8112 101.434 13.2007 100.43 15.3125L101.846 16.4941V17.8561L100.571 18.1142L93.8736 12.5991L94.0116 11.3691L95.2367 10.9779L98.919 14.0513C99.5793 12.4319 99.7377 10.6436 99.3621 8.92194C98.9249 6.91845 97.7929 5.13431 96.1664 3.88551C94.5398 2.63672 92.5238 2.00386 90.4754 2.09903C88.427 2.19419 86.4784 3.01125 84.9746 4.40547C83.4709 5.7997 82.5091 7.68112 82.2597 9.71651C82.0102 11.7519 82.4891 13.8099 83.6116 15.526C84.7341 17.2422 86.4277 18.5056 88.3925 19.0927C89.9999 19.573 91.7039 19.5752 93.3001 19.1117L89.8729 16.2893L90.011 15.0593L91.236 14.6681L97.8453 20.1843V21.5463L96.5699 21.8045L95.0006 20.5121C92.7367 21.4703 90.2084 21.6104 87.8507 20.9059C85.4577 20.1909 83.395 18.652 82.0279 16.5619C80.6608 14.4718 80.0775 11.9653 80.3813 9.48628C80.6852 7.0073 81.8565 4.71585 83.688 3.01777C85.5194 1.31969 87.8928 0.324577 90.3876 0.208668C92.8824 0.0927589 95.3378 0.863539 97.3188 2.38449C99.2998 3.90545 100.679 6.07842 101.211 8.51854Z" fill="#005358"/>
<path fill-rule="evenodd" clip-rule="evenodd" d="M114.421 21.5771C120.262 21.5771 124.997 16.8422 124.997 11.0014C124.997 5.16066 120.262 0.425781 114.421 0.425781C108.581 0.425781 103.846 5.16066 103.846 11.0014C103.846 16.8422 108.581 21.5771 114.421 21.5771ZM114.421 19.6847C109.626 19.6847 105.738 15.7971 105.738 11.0014C105.738 6.2058 109.626 2.31818 114.421 2.31818C119.217 2.31818 123.105 6.2058 123.105 11.0014C123.105 15.7971 119.217 19.6847 114.421 19.6847ZM124.753 11.0014C124.753 16.7074 120.127 21.333 114.421 21.333C111.658 21.333 109.147 20.2477 107.293 18.4801C109.147 20.2475 111.657 21.3326 114.421 21.3326C120.127 21.3326 124.752 16.707 124.752 11.001C124.752 8.24278 123.672 5.73699 121.91 3.88411C123.672 5.73703 124.753 8.24299 124.753 11.0014ZM108.071 17.276C106.478 15.6636 105.494 13.4474 105.494 11.0014C105.494 6.07099 109.491 2.07408 114.421 2.07408C116.867 2.07408 119.084 3.05776 120.696 4.65109C119.083 3.05751 116.867 2.07366 114.421 2.07366C109.49 2.07366 105.494 6.07057 105.494 11.001C105.494 13.4472 106.477 15.6636 108.071 17.276Z" fill="#005358"/>
</svg>
